{
  "extensionsUsed": [
    "KHR_materials_transmission",
    "KHR_materials_clearcoat",
    "KHR_materials_ior",
    "KHR_materials_specular",
    "KHR_materials_emissive_strength",
    "KHR_texture_transform"
  ],
  "accessors": [
    {
      "bufferView": 0,
      "componentType": 5126,
      "count": 400,
      "type": "VEC3",
      "max": [
        3.4532764,
        1.3208017,
        -8.190593
      ],
      "min": [
        2.0332341,
        1.1811463,
        -10.749642
      ]
    },
    {
      "bufferView": 1,
      "componentType": 5125,
      "count": 1392,
      "type": "SCALAR",
      "max": [
        399.0
      ],
      "min": [
        0.0
      ]
    },
    {
      "bufferView": 2,
      "componentType": 5126,
      "count": 400,
      "type": "VEC3",
      "max": [
        1.0,
        1.0,
        1.0
      ],
      "min": [
        -1.0,
        -1.0,
        -1.0
      ]
    },
    {
      "bufferView": 3,
      "componentType": 5126,
      "count": 409,
      "type": "VEC3",
      "max": [
        5.100284,
        1.4605463,
        -7.6825924
      ],
      "min": [
        4.020784,
        1.1811463,
        -10.006692
      ]
    },
    {
      "bufferView": 4,
      "componentType": 5125,
      "count": 1404,
      "type": "SCALAR",
      "max": [
        408.0
      ],
      "min": [
        0.0
      ]
    },
    {
      "bufferView": 5,
      "componentType": 5126,
      "count": 409,
      "type": "VEC3",
      "max": [
        1.0,
        1.0,
        1.0
      ],
      "min": [
        -1.0,
        -1.0,
        -1.0
      ]
    }
  ],
  "asset": {
    "version": "2.0"
  },
  "buffers": [
    {
      "uri": "data:application/octet-stream;base64,",
      "byteLength": 4800
    },
    {
      "uri": "data:application/octet-stream;base64,",
      "byteLength": 5568
    },
    {
      "uri": "data:application/octet-stream;base64,",
      "byteLength": 4800
    },
    {
      "uri": "data:application/octet-stream;base64,",
      "byteLength": 4908
    },
    {
      "uri": "data:application/octet-stream;base64,",
      "byteLength": 5616
    },
    {
      "uri": "data:application/octet-stream;base64,",
      "byteLength": 4908
    }
  ],
  "bufferViews": [
    {
      "buffer": 0,
      "byteLength": 4800,
      "target": 34962
    },
    {
      "buffer": 1,
      "byteLength": 5568,
      "target": 34963
    },
    {
      "buffer": 2,
      "byteLength": 4800,
      "target": 34962
    },
    {
      "buffer": 3,
      "byteLength": 4908,
      "target": 34962
    },
    {
      "buffer": 4,
      "byteLength": 5616,
      "target": 34963
    },
    {
      "buffer": 5,
      "byteLength": 4908,
      "target": 34962
    }
  ],
  "meshes": [
    {
      "primitives": [
        {
          "attributes": {
            "POSITION": 0,
            "NORMAL": 2
          },
          "indices": 1
        }
      ]
    },
    {
      "primitives": [
        {
          "attributes": {
            "POSITION": 3,
            "NORMAL": 5
          },
          "indices": 4
        }
      ]
    }
  ],
  "nodes": [
    {
      "mesh": 0
    },
    {
      "mesh": 1
    }
  ],
  "samplers": [
    {
      "magFilter": 9729,
      "minFilter": 9729
    }
  ],
  "scene": 0,
  "scenes": [
    {
      "nodes": [
        0,
        1
      ],
      "extensions": {}
    }
  ],
  "extensions": {}
}