{
  "extensionsUsed": [
    "KHR_materials_transmission",
    "KHR_materials_clearcoat",
    "KHR_materials_ior",
    "KHR_materials_specular",
    "KHR_materials_emissive_strength",
    "KHR_texture_transform"
  ],
  "accessors": [
    {
      "bufferView": 0,
      "componentType": 5126,
      "count": 30071,
      "type": "VEC3",
      "max": [
        1.1997929,
        2.3599336,
        -21.250689
      ],
      "min": [
        0.31565553,
        1.4756931,
        -21.40309
      ]
    },
    {
      "bufferView": 1,
      "componentType": 5125,
      "count": 179550,
      "type": "SCALAR",
      "max": [
        30070.0
      ],
      "min": [
        0.0
      ]
    },
    {
      "bufferView": 2,
      "componentType": 5126,
      "count": 30071,
      "type": "VEC3",
      "max": [
        0.99999875,
        0.9999987,
        0.8754627
      ],
      "min": [
        -0.9999997,
        -0.9999999,
        -0.8222224
      ]
    }
  ],
  "asset": {
    "version": "2.0"
  },
  "buffers": [
    {
      "uri": "data:application/octet-stream;base64,",
      "byteLength": 360852
    },
    {
      "uri": "data:application/octet-stream;base64,",
      "byteLength": 718200
    },
    {
      "uri": "data:application/octet-stream;base64,",
      "byteLength": 360852
    }
  ],
  "bufferViews": [
    {
      "buffer": 0,
      "byteLength": 360852,
      "target": 34962
    },
    {
      "buffer": 1,
      "byteLength": 718200,
      "target": 34963
    },
    {
      "buffer": 2,
      "byteLength": 360852,
      "target": 34962
    }
  ],
  "meshes": [
    {
      "primitives": [
        {
          "attributes": {
            "POSITION": 0,
            "NORMAL": 2
          },
          "indices": 1
        }
      ]
    }
  ],
  "nodes": [
    {
      "mesh": 0
    }
  ],
  "samplers": [
    {
      "magFilter": 9729,
      "minFilter": 9729
    }
  ],
  "scene": 0,
  "scenes": [
    {
      "nodes": [
        0
      ],
      "extensions": {}
    }
  ],
  "extensions": {}
}