{
  "extensionsUsed": [
    "KHR_materials_transmission",
    "KHR_materials_clearcoat",
    "KHR_materials_ior",
    "KHR_materials_specular",
    "KHR_materials_emissive_strength",
    "KHR_texture_transform"
  ],
  "accessors": [
    {
      "bufferView": 0,
      "componentType": 5126,
      "count": 55825,
      "type": "VEC3",
      "max": [
        1.2001489,
        2.360186,
        -21.250689
      ],
      "min": [
        0.31551898,
        1.4756044,
        -21.40309
      ]
    },
    {
      "bufferView": 1,
      "componentType": 5125,
      "count": 333480,
      "type": "SCALAR",
      "max": [
        55824.0
      ],
      "min": [
        0.0
      ]
    },
    {
      "bufferView": 2,
      "componentType": 5126,
      "count": 55825,
      "type": "VEC3",
      "max": [
        0.9999999,
        0.9999998,
        0.88359374
      ],
      "min": [
        -0.9999999,
        -0.9999998,
        -0.883325
      ]
    }
  ],
  "asset": {
    "version": "2.0"
  },
  "buffers": [
    {
      "uri": "data:application/octet-stream;base64,",
      "byteLength": 669900
    },
    {
      "uri": "data:application/octet-stream;base64,",
      "byteLength": 1333920
    },
    {
      "uri": "data:application/octet-stream;base64,",
      "byteLength": 669900
    }
  ],
  "bufferViews": [
    {
      "buffer": 0,
      "byteLength": 669900,
      "target": 34962
    },
    {
      "buffer": 1,
      "byteLength": 1333920,
      "target": 34963
    },
    {
      "buffer": 2,
      "byteLength": 669900,
      "target": 34962
    }
  ],
  "meshes": [
    {
      "primitives": [
        {
          "attributes": {
            "POSITION": 0,
            "NORMAL": 2
          },
          "indices": 1
        }
      ]
    }
  ],
  "nodes": [
    {
      "mesh": 0
    }
  ],
  "samplers": [
    {
      "magFilter": 9729,
      "minFilter": 9729
    }
  ],
  "scene": 0,
  "scenes": [
    {
      "nodes": [
        0
      ],
      "extensions": {}
    }
  ],
  "extensions": {}
}