{
  "extensionsUsed": [
    "KHR_materials_transmission",
    "KHR_materials_clearcoat",
    "KHR_materials_ior",
    "KHR_materials_specular",
    "KHR_materials_emissive_strength",
    "KHR_texture_transform"
  ],
  "accessors": [
    {
      "bufferView": 0,
      "componentType": 5126,
      "count": 72,
      "type": "VEC3",
      "max": [
        1.69039142,
        3.14027548,
        -21.4004669
      ],
      "min": [
        -0.214611053,
        -1.74761267E-16,
        -22.3656673
      ]
    },
    {
      "bufferView": 1,
      "componentType": 5125,
      "count": 132,
      "type": "SCALAR",
      "max": [
        71.0
      ],
      "min": [
        0.0
      ]
    },
    {
      "bufferView": 2,
      "componentType": 5126,
      "count": 72,
      "type": "VEC3",
      "max": [
        1.0,
        1.0,
        1.0
      ],
      "min": [
        -1.0,
        -0.9999998,
        -1.0
      ]
    },
    {
      "bufferView": 3,
      "componentType": 5126,
      "count": 72,
      "type": "VEC3",
      "max": [
        4.86539125,
        3.14027548,
        -21.4004669
      ],
      "min": [
        3.23978877,
        9.156002E-11,
        -22.3656673
      ]
    },
    {
      "bufferView": 4,
      "componentType": 5125,
      "count": 132,
      "type": "SCALAR",
      "max": [
        71.0
      ],
      "min": [
        0.0
      ]
    },
    {
      "bufferView": 5,
      "componentType": 5126,
      "count": 72,
      "type": "VEC3",
      "max": [
        1.0,
        1.0,
        1.0
      ],
      "min": [
        -1.0,
        -0.9999998,
        -1.0
      ]
    },
    {
      "bufferView": 6,
      "componentType": 5126,
      "count": 216,
      "type": "VEC3",
      "max": [
        -1.7638607,
        3.14027548,
        -21.4003315
      ],
      "min": [
        -3.7071085,
        -8.74637354E-17,
        -22.7458057
      ]
    },
    {
      "bufferView": 7,
      "componentType": 5125,
      "count": 804,
      "type": "SCALAR",
      "max": [
        215.0
      ],
      "min": [
        0.0
      ]
    },
    {
      "bufferView": 8,
      "componentType": 5126,
      "count": 216,
      "type": "VEC3",
      "max": [
        1.0,
        1.0,
        1.0
      ],
      "min": [
        -1.0,
        -0.9999998,
        -1.0
      ]
    },
    {
      "bufferView": 9,
      "componentType": 5126,
      "count": 24,
      "type": "VEC3",
      "max": [
        6.558892,
        3.14027548,
        -21.4466667
      ],
      "min": [
        -3.7071085,
        2.562225,
        -24.384407
      ]
    },
    {
      "bufferView": 10,
      "componentType": 5125,
      "count": 36,
      "type": "SCALAR",
      "max": [
        23.0
      ],
      "min": [
        0.0
      ]
    },
    {
      "bufferView": 11,
      "componentType": 5126,
      "count": 24,
      "type": "VEC3",
      "max": [
        1.0,
        1.0,
        1.0
      ],
      "min": [
        -1.0,
        -1.0,
        -1.0
      ]
    },
    {
      "bufferView": 12,
      "componentType": 5126,
      "count": 24,
      "type": "VEC3",
      "max": [
        7.809725,
        4.72199535,
        -23.8896675
      ],
      "min": [
        -3.7071085,
        0.0,
        -24.0546
      ]
    },
    {
      "bufferView": 13,
      "componentType": 5125,
      "count": 36,
      "type": "SCALAR",
      "max": [
        23.0
      ],
      "min": [
        0.0
      ]
    },
    {
      "bufferView": 14,
      "componentType": 5126,
      "count": 24,
      "type": "VEC3",
      "max": [
        1.0,
        1.0,
        1.0
      ],
      "min": [
        -1.0,
        -1.0,
        -1.0
      ]
    },
    {
      "bufferView": 15,
      "componentType": 5126,
      "count": 24,
      "type": "VEC3",
      "max": [
        4.135957,
        2.8504703,
        -21.3972931
      ],
      "min": [
        3.32315564,
        2.69895029,
        -21.4004669
      ]
    },
    {
      "bufferView": 16,
      "componentType": 5125,
      "count": 36,
      "type": "SCALAR",
      "max": [
        23.0
      ],
      "min": [
        0.0
      ]
    },
    {
      "bufferView": 17,
      "componentType": 5126,
      "count": 24,
      "type": "VEC3",
      "max": [
        1.0,
        1.0,
        1.0
      ],
      "min": [
        -1.0,
        -1.0,
        -1.0
      ]
    },
    {
      "bufferView": 18,
      "componentType": 5126,
      "count": 24,
      "type": "VEC3",
      "max": [
        1.12738383,
        2.8504703,
        -21.3972931
      ],
      "min": [
        0.3145826,
        2.69895029,
        -21.4004669
      ]
    },
    {
      "bufferView": 19,
      "componentType": 5125,
      "count": 36,
      "type": "SCALAR",
      "max": [
        23.0
      ],
      "min": [
        0.0
      ]
    },
    {
      "bufferView": 20,
      "componentType": 5126,
      "count": 24,
      "type": "VEC3",
      "max": [
        1.0,
        1.0,
        1.0
      ],
      "min": [
        -1.0,
        -1.0,
        -1.0
      ]
    },
    {
      "bufferView": 21,
      "componentType": 5126,
      "count": 24,
      "type": "VEC3",
      "max": [
        -2.63718987,
        2.8504703,
        -21.3972931
      ],
      "min": [
        -3.449991,
        2.69895029,
        -21.4004669
      ]
    },
    {
      "bufferView": 22,
      "componentType": 5125,
      "count": 36,
      "type": "SCALAR",
      "max": [
        23.0
      ],
      "min": [
        0.0
      ]
    },
    {
      "bufferView": 23,
      "componentType": 5126,
      "count": 24,
      "type": "VEC3",
      "max": [
        1.0,
        1.0,
        1.0
      ],
      "min": [
        -1.0,
        -1.0,
        -1.0
      ]
    },
    {
      "bufferView": 24,
      "componentType": 5126,
      "count": 24,
      "type": "VEC3",
      "max": [
        4.87809134,
        4.122108,
        -20.0733166
      ],
      "min": [
        4.21769142,
        0.0,
        -20.6575165
      ]
    },
    {
      "bufferView": 25,
      "componentType": 5125,
      "count": 36,
      "type": "SCALAR",
      "max": [
        23.0
      ],
      "min": [
        0.0
      ]
    },
    {
      "bufferView": 26,
      "componentType": 5126,
      "count": 24,
      "type": "VEC3",
      "max": [
        1.0,
        1.0,
        1.0
      ],
      "min": [
        -1.0,
        -1.0,
        -1.0
      ]
    },
    {
      "bufferView": 27,
      "componentType": 5126,
      "count": 24,
      "type": "VEC3",
      "max": [
        -1.687809,
        4.122108,
        -20.0384426
      ],
      "min": [
        -2.433934,
        0.0,
        -20.6829681
      ]
    },
    {
      "bufferView": 28,
      "componentType": 5125,
      "count": 36,
      "type": "SCALAR",
      "max": [
        23.0
      ],
      "min": [
        0.0
      ]
    },
    {
      "bufferView": 29,
      "componentType": 5126,
      "count": 24,
      "type": "VEC3",
      "max": [
        1.0,
        1.0,
        1.0
      ],
      "min": [
        -1.0,
        -1.0,
        -1.0
      ]
    }
  ],
  "asset": {
    "version": "2.0"
  },
  "buffers": [
    {
      "uri": "data:application/octet-stream;base64,",
      "byteLength": 864
    },
    {
      "uri": "data:application/octet-stream;base64,",
      "byteLength": 528
    },
    {
      "uri": "data:application/octet-stream;base64,",
      "byteLength": 864
    },
    {
      "uri": "data:application/octet-stream;base64,",
      "byteLength": 864
    },
    {
      "uri": "data:application/octet-stream;base64,",
      "byteLength": 528
    },
    {
      "uri": "data:application/octet-stream;base64,",
      "byteLength": 864
    },
    {
      "uri": "data:application/octet-stream;base64,",
      "byteLength": 2592
    },
    {
      "uri": "data:application/octet-stream;base64,",
      "byteLength": 3216
    },
    {
      "uri": "data:application/octet-stream;base64,",
      "byteLength": 2592
    },
    {
      "uri": "data:application/octet-stream;base64,",
      "byteLength": 288
    },
    {
      "uri": "data:application/octet-stream;base64,",
      "byteLength": 144
    },
    {
      "uri": "data:application/octet-stream;base64,",
      "byteLength": 288
    },
    {
      "uri": "data:application/octet-stream;base64,",
      "byteLength": 288
    },
    {
      "uri": "data:application/octet-stream;base64,",
      "byteLength": 144
    },
    {
      "uri": "data:application/octet-stream;base64,",
      "byteLength": 288
    },
    {
      "uri": "data:application/octet-stream;base64,",
      "byteLength": 288
    },
    {
      "uri": "data:application/octet-stream;base64,",
      "byteLength": 144
    },
    {
      "uri": "data:application/octet-stream;base64,",
      "byteLength": 288
    },
    {
      "uri": "data:application/octet-stream;base64,",
      "byteLength": 288
    },
    {
      "uri": "data:application/octet-stream;base64,",
      "byteLength": 144
    },
    {
      "uri": "data:application/octet-stream;base64,",
      "byteLength": 288
    },
    {
      "uri": "data:application/octet-stream;base64,",
      "byteLength": 288
    },
    {
      "uri": "data:application/octet-stream;base64,",
      "byteLength": 144
    },
    {
      "uri": "data:application/octet-stream;base64,",
      "byteLength": 288
    },
    {
      "uri": "data:application/octet-stream;base64,",
      "byteLength": 288
    },
    {
      "uri": "data:application/octet-stream;base64,",
      "byteLength": 144
    },
    {
      "uri": "data:application/octet-stream;base64,",
      "byteLength": 288
    },
    {
      "uri": "data:application/octet-stream;base64,",
      "byteLength": 288
    },
    {
      "uri": "data:application/octet-stream;base64,",
      "byteLength": 144
    },
    {
      "uri": "data:application/octet-stream;base64,",
      "byteLength": 288
    }
  ],
  "bufferViews": [
    {
      "buffer": 0,
      "byteLength": 864,
      "target": 34962
    },
    {
      "buffer": 1,
      "byteLength": 528,
      "target": 34963
    },
    {
      "buffer": 2,
      "byteLength": 864,
      "target": 34962
    },
    {
      "buffer": 3,
      "byteLength": 864,
      "target": 34962
    },
    {
      "buffer": 4,
      "byteLength": 528,
      "target": 34963
    },
    {
      "buffer": 5,
      "byteLength": 864,
      "target": 34962
    },
    {
      "buffer": 6,
      "byteLength": 2592,
      "target": 34962
    },
    {
      "buffer": 7,
      "byteLength": 3216,
      "target": 34963
    },
    {
      "buffer": 8,
      "byteLength": 2592,
      "target": 34962
    },
    {
      "buffer": 9,
      "byteLength": 288,
      "target": 34962
    },
    {
      "buffer": 10,
      "byteLength": 144,
      "target": 34963
    },
    {
      "buffer": 11,
      "byteLength": 288,
      "target": 34962
    },
    {
      "buffer": 12,
      "byteLength": 288,
      "target": 34962
    },
    {
      "buffer": 13,
      "byteLength": 144,
      "target": 34963
    },
    {
      "buffer": 14,
      "byteLength": 288,
      "target": 34962
    },
    {
      "buffer": 15,
      "byteLength": 288,
      "target": 34962
    },
    {
      "buffer": 16,
      "byteLength": 144,
      "target": 34963
    },
    {
      "buffer": 17,
      "byteLength": 288,
      "target": 34962
    },
    {
      "buffer": 18,
      "byteLength": 288,
      "target": 34962
    },
    {
      "buffer": 19,
      "byteLength": 144,
      "target": 34963
    },
    {
      "buffer": 20,
      "byteLength": 288,
      "target": 34962
    },
    {
      "buffer": 21,
      "byteLength": 288,
      "target": 34962
    },
    {
      "buffer": 22,
      "byteLength": 144,
      "target": 34963
    },
    {
      "buffer": 23,
      "byteLength": 288,
      "target": 34962
    },
    {
      "buffer": 24,
      "byteLength": 288,
      "target": 34962
    },
    {
      "buffer": 25,
      "byteLength": 144,
      "target": 34963
    },
    {
      "buffer": 26,
      "byteLength": 288,
      "target": 34962
    },
    {
      "buffer": 27,
      "byteLength": 288,
      "target": 34962
    },
    {
      "buffer": 28,
      "byteLength": 144,
      "target": 34963
    },
    {
      "buffer": 29,
      "byteLength": 288,
      "target": 34962
    }
  ],
  "meshes": [
    {
      "primitives": [
        {
          "attributes": {
            "POSITION": 0,
            "NORMAL": 2
          },
          "indices": 1
        }
      ]
    },
    {
      "primitives": [
        {
          "attributes": {
            "POSITION": 3,
            "NORMAL": 5
          },
          "indices": 4
        }
      ]
    },
    {
      "primitives": [
        {
          "attributes": {
            "POSITION": 6,
            "NORMAL": 8
          },
          "indices": 7
        }
      ]
    },
    {
      "primitives": [
        {
          "attributes": {
            "POSITION": 9,
            "NORMAL": 11
          },
          "indices": 10
        }
      ]
    },
    {
      "primitives": [
        {
          "attributes": {
            "POSITION": 12,
            "NORMAL": 14
          },
          "indices": 13
        }
      ]
    },
    {
      "primitives": [
        {
          "attributes": {
            "POSITION": 15,
            "NORMAL": 17
          },
          "indices": 16
        }
      ]
    },
    {
      "primitives": [
        {
          "attributes": {
            "POSITION": 18,
            "NORMAL": 20
          },
          "indices": 19
        }
      ]
    },
    {
      "primitives": [
        {
          "attributes": {
            "POSITION": 21,
            "NORMAL": 23
          },
          "indices": 22
        }
      ]
    },
    {
      "primitives": [
        {
          "attributes": {
            "POSITION": 24,
            "NORMAL": 26
          },
          "indices": 25
        }
      ]
    },
    {
      "primitives": [
        {
          "attributes": {
            "POSITION": 27,
            "NORMAL": 29
          },
          "indices": 28
        }
      ]
    }
  ],
  "nodes": [
    {
      "mesh": 0
    },
    {
      "mesh": 1
    },
    {
      "mesh": 2
    },
    {
      "mesh": 3
    },
    {
      "mesh": 4
    },
    {
      "mesh": 5
    },
    {
      "mesh": 6
    },
    {
      "mesh": 7
    },
    {
      "mesh": 8
    },
    {
      "mesh": 9
    }
  ],
  "samplers": [
    {
      "magFilter": 9729,
      "minFilter": 9729
    }
  ],
  "scene": 0,
  "scenes": [
    {
      "nodes": [
        0,
        1,
        2,
        3,
        4,
        5,
        6,
        7,
        8,
        9
      ],
      "extensions": {}
    }
  ],
  "extensions": {}
}