{
  "extensionsUsed": [
    "KHR_materials_transmission",
    "KHR_materials_clearcoat",
    "KHR_materials_ior",
    "KHR_materials_specular",
    "KHR_materials_emissive_strength",
    "KHR_texture_transform"
  ],
  "accessors": [
    {
      "bufferView": 0,
      "componentType": 5126,
      "count": 4603,
      "type": "VEC3",
      "max": [
        1.5198383,
        2.6799004,
        -21.24815
      ],
      "min": [
        -0.004161701,
        1.1559002,
        -21.400549
      ]
    },
    {
      "bufferView": 1,
      "componentType": 5125,
      "count": 24762,
      "type": "SCALAR",
      "max": [
        4602.0
      ],
      "min": [
        0.0
      ]
    },
    {
      "bufferView": 2,
      "componentType": 5126,
      "count": 4603,
      "type": "VEC3",
      "max": [
        1.0,
        1.0,
        0.9980461
      ],
      "min": [
        -1.0,
        -1.0,
        -0.0
      ]
    }
  ],
  "asset": {
    "version": "2.0"
  },
  "buffers": [
    {
      "uri": "data:application/octet-stream;base64,",
      "byteLength": 55236
    },
    {
      "uri": "data:application/octet-stream;base64,",
      "byteLength": 99048
    },
    {
      "uri": "data:application/octet-stream;base64,",
      "byteLength": 55236
    }
  ],
  "bufferViews": [
    {
      "buffer": 0,
      "byteLength": 55236,
      "target": 34962
    },
    {
      "buffer": 1,
      "byteLength": 99048,
      "target": 34963
    },
    {
      "buffer": 2,
      "byteLength": 55236,
      "target": 34962
    }
  ],
  "meshes": [
    {
      "primitives": [
        {
          "attributes": {
            "POSITION": 0,
            "NORMAL": 2
          },
          "indices": 1
        }
      ]
    }
  ],
  "nodes": [
    {
      "mesh": 0
    }
  ],
  "samplers": [
    {
      "magFilter": 9729,
      "minFilter": 9729
    }
  ],
  "scene": 0,
  "scenes": [
    {
      "nodes": [
        0
      ],
      "extensions": {}
    }
  ],
  "extensions": {}
}