{
  "extensionsUsed": [
    "KHR_materials_transmission",
    "KHR_materials_clearcoat",
    "KHR_materials_ior",
    "KHR_materials_specular",
    "KHR_materials_emissive_strength",
    "KHR_texture_transform"
  ],
  "accessors": [
    {
      "bufferView": 0,
      "componentType": 5126,
      "count": 180,
      "type": "VEC3",
      "max": [
        5.92479229,
        2.36855173,
        -6.85525
      ],
      "min": [
        2.007834,
        0.3048462,
        -11.5971088
      ]
    },
    {
      "bufferView": 1,
      "componentType": 5125,
      "count": 360,
      "type": "SCALAR",
      "max": [
        179.0
      ],
      "min": [
        0.0
      ]
    },
    {
      "bufferView": 2,
      "componentType": 5126,
      "count": 180,
      "type": "VEC3",
      "max": [
        1.0,
        1.0,
        1.0
      ],
      "min": [
        -1.0,
        -1.0,
        -1.0
      ]
    },
    {
      "bufferView": 3,
      "componentType": 5126,
      "count": 89,
      "type": "VEC3",
      "max": [
        3.42152643,
        1.18114626,
        -8.190593
      ],
      "min": [
        3.30948782,
        0.355970919,
        -10.5653725
      ]
    },
    {
      "bufferView": 4,
      "componentType": 5125,
      "count": 216,
      "type": "SCALAR",
      "max": [
        88.0
      ],
      "min": [
        0.0
      ]
    },
    {
      "bufferView": 5,
      "componentType": 5126,
      "count": 89,
      "type": "VEC3",
      "max": [
        1.0,
        1.0,
        1.0
      ],
      "min": [
        -1.0,
        -1.0,
        -1.0
      ]
    },
    {
      "bufferView": 6,
      "componentType": 5126,
      "count": 48,
      "type": "VEC3",
      "max": [
        3.4122262,
        1.18114626,
        -9.204378
      ],
      "min": [
        3.137307,
        0.9713194,
        -9.548726
      ]
    },
    {
      "bufferView": 7,
      "componentType": 5125,
      "count": 84,
      "type": "SCALAR",
      "max": [
        47.0
      ],
      "min": [
        0.0
      ]
    },
    {
      "bufferView": 8,
      "componentType": 5126,
      "count": 48,
      "type": "VEC3",
      "max": [
        1.0,
        1.0,
        1.0
      ],
      "min": [
        -1.0,
        -1.0,
        -1.0
      ]
    },
    {
      "bufferView": 9,
      "componentType": 5126,
      "count": 36,
      "type": "VEC3",
      "max": [
        4.795484,
        1.40339625,
        -7.98739243
      ],
      "min": [
        4.020784,
        0.3048462,
        -9.987642
      ]
    },
    {
      "bufferView": 10,
      "componentType": 5125,
      "count": 60,
      "type": "SCALAR",
      "max": [
        35.0
      ],
      "min": [
        0.0
      ]
    },
    {
      "bufferView": 11,
      "componentType": 5126,
      "count": 36,
      "type": "VEC3",
      "max": [
        1.0,
        1.0,
        1.0
      ],
      "min": [
        -1.0,
        -1.0,
        -1.0
      ]
    },
    {
      "bufferView": 12,
      "componentType": 5126,
      "count": 24,
      "type": "VEC3",
      "max": [
        2.758777,
        1.73903883,
        -8.191136
      ],
      "min": [
        2.20798588,
        1.72633886,
        -8.763844
      ]
    },
    {
      "bufferView": 13,
      "componentType": 5125,
      "count": 36,
      "type": "SCALAR",
      "max": [
        23.0
      ],
      "min": [
        0.0
      ]
    },
    {
      "bufferView": 14,
      "componentType": 5126,
      "count": 24,
      "type": "VEC3",
      "max": [
        1.0,
        1.0,
        1.0
      ],
      "min": [
        -1.0,
        -1.0,
        -1.0
      ]
    },
    {
      "bufferView": 15,
      "componentType": 5126,
      "count": 24,
      "type": "VEC3",
      "max": [
        2.758777,
        2.04383874,
        -8.191136
      ],
      "min": [
        2.20798588,
        2.031139,
        -8.763844
      ]
    },
    {
      "bufferView": 16,
      "componentType": 5125,
      "count": 36,
      "type": "SCALAR",
      "max": [
        23.0
      ],
      "min": [
        0.0
      ]
    },
    {
      "bufferView": 17,
      "componentType": 5126,
      "count": 24,
      "type": "VEC3",
      "max": [
        1.0,
        1.0,
        1.0
      ],
      "min": [
        -1.0,
        -1.0,
        -1.0
      ]
    },
    {
      "bufferView": 18,
      "componentType": 5126,
      "count": 24,
      "type": "VEC3",
      "max": [
        2.768492,
        2.04383874,
        -10.0186548
      ],
      "min": [
        2.51653934,
        2.031139,
        -10.591361
      ]
    },
    {
      "bufferView": 19,
      "componentType": 5125,
      "count": 36,
      "type": "SCALAR",
      "max": [
        23.0
      ],
      "min": [
        0.0
      ]
    },
    {
      "bufferView": 20,
      "componentType": 5126,
      "count": 24,
      "type": "VEC3",
      "max": [
        1.0,
        1.0,
        1.0
      ],
      "min": [
        -1.0,
        -1.0,
        -1.0
      ]
    },
    {
      "bufferView": 21,
      "componentType": 5126,
      "count": 24,
      "type": "VEC3",
      "max": [
        2.768492,
        1.73903883,
        -10.0186548
      ],
      "min": [
        2.51653934,
        1.72633886,
        -10.591361
      ]
    },
    {
      "bufferView": 22,
      "componentType": 5125,
      "count": 36,
      "type": "SCALAR",
      "max": [
        23.0
      ],
      "min": [
        0.0
      ]
    },
    {
      "bufferView": 23,
      "componentType": 5126,
      "count": 24,
      "type": "VEC3",
      "max": [
        1.0,
        1.0,
        1.0
      ],
      "min": [
        -1.0,
        -1.0,
        -1.0
      ]
    },
    {
      "bufferView": 24,
      "componentType": 5126,
      "count": 48,
      "type": "VEC3",
      "max": [
        4.185884,
        1.17479622,
        -9.062432
      ],
      "min": [
        4.166834,
        1.01604617,
        -9.981173
      ]
    },
    {
      "bufferView": 25,
      "componentType": 5125,
      "count": 84,
      "type": "SCALAR",
      "max": [
        47.0
      ],
      "min": [
        0.0
      ]
    },
    {
      "bufferView": 26,
      "componentType": 5126,
      "count": 48,
      "type": "VEC3",
      "max": [
        1.0,
        1.0,
        1.0
      ],
      "min": [
        -1.0,
        -1.0,
        -1.0
      ]
    },
    {
      "bufferView": 27,
      "componentType": 5126,
      "count": 78,
      "type": "VEC3",
      "max": [
        4.693884,
        1.18114614,
        -9.055963
      ],
      "min": [
        4.185884,
        0.3048462,
        -9.987642
      ]
    },
    {
      "bufferView": 28,
      "componentType": 5125,
      "count": 156,
      "type": "SCALAR",
      "max": [
        77.0
      ],
      "min": [
        0.0
      ]
    },
    {
      "bufferView": 29,
      "componentType": 5126,
      "count": 78,
      "type": "VEC3",
      "max": [
        1.0,
        1.0,
        1.0
      ],
      "min": [
        -1.0,
        -1.0,
        -1.0
      ]
    },
    {
      "bufferView": 30,
      "componentType": 5126,
      "count": 48,
      "type": "VEC3",
      "max": [
        3.45327663,
        1.18114614,
        -9.131297
      ],
      "min": [
        3.43422651,
        1.02239621,
        -10.0500374
      ]
    },
    {
      "bufferView": 31,
      "componentType": 5125,
      "count": 84,
      "type": "SCALAR",
      "max": [
        47.0
      ],
      "min": [
        0.0
      ]
    },
    {
      "bufferView": 32,
      "componentType": 5126,
      "count": 48,
      "type": "VEC3",
      "max": [
        1.0,
        1.0,
        1.0
      ],
      "min": [
        -1.0,
        -1.0,
        -1.0
      ]
    },
    {
      "bufferView": 33,
      "componentType": 5126,
      "count": 48,
      "type": "VEC3",
      "max": [
        3.45327663,
        1.01604617,
        -9.131297
      ],
      "min": [
        3.43422651,
        0.4318462,
        -9.590668
      ]
    },
    {
      "bufferView": 34,
      "componentType": 5125,
      "count": 84,
      "type": "SCALAR",
      "max": [
        47.0
      ],
      "min": [
        0.0
      ]
    },
    {
      "bufferView": 35,
      "componentType": 5126,
      "count": 48,
      "type": "VEC3",
      "max": [
        1.0,
        1.0,
        1.0
      ],
      "min": [
        -1.0,
        -1.0,
        -1.0
      ]
    },
    {
      "bufferView": 36,
      "componentType": 5126,
      "count": 48,
      "type": "VEC3",
      "max": [
        3.45327663,
        1.01604617,
        -9.594089
      ],
      "min": [
        3.43422651,
        0.4318462,
        -10.0500374
      ]
    },
    {
      "bufferView": 37,
      "componentType": 5125,
      "count": 84,
      "type": "SCALAR",
      "max": [
        47.0
      ],
      "min": [
        0.0
      ]
    },
    {
      "bufferView": 38,
      "componentType": 5126,
      "count": 48,
      "type": "VEC3",
      "max": [
        1.0,
        1.0,
        1.0
      ],
      "min": [
        -1.0,
        -1.0,
        -1.0
      ]
    },
    {
      "bufferView": 39,
      "componentType": 5126,
      "count": 175,
      "type": "VEC3",
      "max": [
        3.45327663,
        1.18114614,
        -10.0565081
      ],
      "min": [
        3.38342667,
        0.3241039,
        -10.5924549
      ]
    },
    {
      "bufferView": 40,
      "componentType": 5125,
      "count": 336,
      "type": "SCALAR",
      "max": [
        174.0
      ],
      "min": [
        0.0
      ]
    },
    {
      "bufferView": 41,
      "componentType": 5126,
      "count": 175,
      "type": "VEC3",
      "max": [
        1.0,
        1.0,
        1.0
      ],
      "min": [
        -1.0,
        -1.0,
        -1.0
      ]
    },
    {
      "bufferView": 42,
      "componentType": 5126,
      "count": 616,
      "type": "VEC3",
      "max": [
        3.475222,
        0.9532636,
        -9.619189
      ],
      "min": [
        3.45327663,
        0.8554228,
        -9.631767
      ]
    },
    {
      "bufferView": 43,
      "componentType": 5125,
      "count": 1848,
      "type": "SCALAR",
      "max": [
        615.0
      ],
      "min": [
        0.0
      ]
    },
    {
      "bufferView": 44,
      "componentType": 5126,
      "count": 616,
      "type": "VEC3",
      "max": [
        1.0,
        1.0,
        1.0
      ],
      "min": [
        -1.0,
        -1.0,
        -1.0
      ]
    },
    {
      "bufferView": 45,
      "componentType": 5126,
      "count": 616,
      "type": "VEC3",
      "max": [
        3.475222,
        0.9532636,
        -9.554489
      ],
      "min": [
        3.45327663,
        0.8554228,
        -9.567067
      ]
    },
    {
      "bufferView": 46,
      "componentType": 5125,
      "count": 1848,
      "type": "SCALAR",
      "max": [
        615.0
      ],
      "min": [
        0.0
      ]
    },
    {
      "bufferView": 47,
      "componentType": 5126,
      "count": 616,
      "type": "VEC3",
      "max": [
        1.0,
        1.0,
        1.0
      ],
      "min": [
        -1.0,
        -1.0,
        -1.0
      ]
    }
  ],
  "asset": {
    "version": "2.0"
  },
  "buffers": [
    {
      "uri": "data:application/octet-stream;base64,",
      "byteLength": 2160
    },
    {
      "uri": "data:application/octet-stream;base64,",
      "byteLength": 1440
    },
    {
      "uri": "data:application/octet-stream;base64,",
      "byteLength": 2160
    },
    {
      "uri": "data:application/octet-stream;base64,",
      "byteLength": 1068
    },
    {
      "uri": "data:application/octet-stream;base64,",
      "byteLength": 864
    },
    {
      "uri": "data:application/octet-stream;base64,",
      "byteLength": 1068
    },
    {
      "uri": "data:application/octet-stream;base64,",
      "byteLength": 576
    },
    {
      "uri": "data:application/octet-stream;base64,",
      "byteLength": 336
    },
    {
      "uri": "data:application/octet-stream;base64,",
      "byteLength": 576
    },
    {
      "uri": "data:application/octet-stream;base64,",
      "byteLength": 432
    },
    {
      "uri": "data:application/octet-stream;base64,",
      "byteLength": 240
    },
    {
      "uri": "data:application/octet-stream;base64,",
      "byteLength": 432
    },
    {
      "uri": "data:application/octet-stream;base64,",
      "byteLength": 288
    },
    {
      "uri": "data:application/octet-stream;base64,",
      "byteLength": 144
    },
    {
      "uri": "data:application/octet-stream;base64,",
      "byteLength": 288
    },
    {
      "uri": "data:application/octet-stream;base64,",
      "byteLength": 288
    },
    {
      "uri": "data:application/octet-stream;base64,",
      "byteLength": 144
    },
    {
      "uri": "data:application/octet-stream;base64,",
      "byteLength": 288
    },
    {
      "uri": "data:application/octet-stream;base64,",
      "byteLength": 288
    },
    {
      "uri": "data:application/octet-stream;base64,",
      "byteLength": 144
    },
    {
      "uri": "data:application/octet-stream;base64,",
      "byteLength": 288
    },
    {
      "uri": "data:application/octet-stream;base64,",
      "byteLength": 288
    },
    {
      "uri": "data:application/octet-stream;base64,",
      "byteLength": 144
    },
    {
      "uri": "data:application/octet-stream;base64,",
      "byteLength": 288
    },
    {
      "uri": "data:application/octet-stream;base64,",
      "byteLength": 576
    },
    {
      "uri": "data:application/octet-stream;base64,",
      "byteLength": 336
    },
    {
      "uri": "data:application/octet-stream;base64,",
      "byteLength": 576
    },
    {
      "uri": "data:application/octet-stream;base64,",
      "byteLength": 936
    },
    {
      "uri": "data:application/octet-stream;base64,",
      "byteLength": 624
    },
    {
      "uri": "data:application/octet-stream;base64,",
      "byteLength": 936
    },
    {
      "uri": "data:application/octet-stream;base64,",
      "byteLength": 576
    },
    {
      "uri": "data:application/octet-stream;base64,",
      "byteLength": 336
    },
    {
      "uri": "data:application/octet-stream;base64,",
      "byteLength": 576
    },
    {
      "uri": "data:application/octet-stream;base64,",
      "byteLength": 576
    },
    {
      "uri": "data:application/octet-stream;base64,",
      "byteLength": 336
    },
    {
      "uri": "data:application/octet-stream;base64,",
      "byteLength": 576
    },
    {
      "uri": "data:application/octet-stream;base64,",
      "byteLength": 576
    },
    {
      "uri": "data:application/octet-stream;base64,",
      "byteLength": 336
    },
    {
      "uri": "data:application/octet-stream;base64,",
      "byteLength": 576
    },
    {
      "uri": "data:application/octet-stream;base64,",
      "byteLength": 2100
    },
    {
      "uri": "data:application/octet-stream;base64,",
      "byteLength": 1344
    },
    {
      "uri": "data:application/octet-stream;base64,",
      "byteLength": 2100
    },
    {
      "uri": "data:application/octet-stream;base64,",
      "byteLength": 7392
    },
    {
      "uri": "data:application/octet-stream;base64,",
      "byteLength": 7392
    },
    {
      "uri": "data:application/octet-stream;base64,",
      "byteLength": 7392
    },
    {
      "uri": "data:application/octet-stream;base64,",
      "byteLength": 7392
    },
    {
      "uri": "data:application/octet-stream;base64,",
      "byteLength": 7392
    },
    {
      "uri": "data:application/octet-stream;base64,",
      "byteLength": 7392
    }
  ],
  "bufferViews": [
    {
      "buffer": 0,
      "byteLength": 2160,
      "target": 34962
    },
    {
      "buffer": 1,
      "byteLength": 1440,
      "target": 34963
    },
    {
      "buffer": 2,
      "byteLength": 2160,
      "target": 34962
    },
    {
      "buffer": 3,
      "byteLength": 1068,
      "target": 34962
    },
    {
      "buffer": 4,
      "byteLength": 864,
      "target": 34963
    },
    {
      "buffer": 5,
      "byteLength": 1068,
      "target": 34962
    },
    {
      "buffer": 6,
      "byteLength": 576,
      "target": 34962
    },
    {
      "buffer": 7,
      "byteLength": 336,
      "target": 34963
    },
    {
      "buffer": 8,
      "byteLength": 576,
      "target": 34962
    },
    {
      "buffer": 9,
      "byteLength": 432,
      "target": 34962
    },
    {
      "buffer": 10,
      "byteLength": 240,
      "target": 34963
    },
    {
      "buffer": 11,
      "byteLength": 432,
      "target": 34962
    },
    {
      "buffer": 12,
      "byteLength": 288,
      "target": 34962
    },
    {
      "buffer": 13,
      "byteLength": 144,
      "target": 34963
    },
    {
      "buffer": 14,
      "byteLength": 288,
      "target": 34962
    },
    {
      "buffer": 15,
      "byteLength": 288,
      "target": 34962
    },
    {
      "buffer": 16,
      "byteLength": 144,
      "target": 34963
    },
    {
      "buffer": 17,
      "byteLength": 288,
      "target": 34962
    },
    {
      "buffer": 18,
      "byteLength": 288,
      "target": 34962
    },
    {
      "buffer": 19,
      "byteLength": 144,
      "target": 34963
    },
    {
      "buffer": 20,
      "byteLength": 288,
      "target": 34962
    },
    {
      "buffer": 21,
      "byteLength": 288,
      "target": 34962
    },
    {
      "buffer": 22,
      "byteLength": 144,
      "target": 34963
    },
    {
      "buffer": 23,
      "byteLength": 288,
      "target": 34962
    },
    {
      "buffer": 24,
      "byteLength": 576,
      "target": 34962
    },
    {
      "buffer": 25,
      "byteLength": 336,
      "target": 34963
    },
    {
      "buffer": 26,
      "byteLength": 576,
      "target": 34962
    },
    {
      "buffer": 27,
      "byteLength": 936,
      "target": 34962
    },
    {
      "buffer": 28,
      "byteLength": 624,
      "target": 34963
    },
    {
      "buffer": 29,
      "byteLength": 936,
      "target": 34962
    },
    {
      "buffer": 30,
      "byteLength": 576,
      "target": 34962
    },
    {
      "buffer": 31,
      "byteLength": 336,
      "target": 34963
    },
    {
      "buffer": 32,
      "byteLength": 576,
      "target": 34962
    },
    {
      "buffer": 33,
      "byteLength": 576,
      "target": 34962
    },
    {
      "buffer": 34,
      "byteLength": 336,
      "target": 34963
    },
    {
      "buffer": 35,
      "byteLength": 576,
      "target": 34962
    },
    {
      "buffer": 36,
      "byteLength": 576,
      "target": 34962
    },
    {
      "buffer": 37,
      "byteLength": 336,
      "target": 34963
    },
    {
      "buffer": 38,
      "byteLength": 576,
      "target": 34962
    },
    {
      "buffer": 39,
      "byteLength": 2100,
      "target": 34962
    },
    {
      "buffer": 40,
      "byteLength": 1344,
      "target": 34963
    },
    {
      "buffer": 41,
      "byteLength": 2100,
      "target": 34962
    },
    {
      "buffer": 42,
      "byteLength": 7392,
      "target": 34962
    },
    {
      "buffer": 43,
      "byteLength": 7392,
      "target": 34963
    },
    {
      "buffer": 44,
      "byteLength": 7392,
      "target": 34962
    },
    {
      "buffer": 45,
      "byteLength": 7392,
      "target": 34962
    },
    {
      "buffer": 46,
      "byteLength": 7392,
      "target": 34963
    },
    {
      "buffer": 47,
      "byteLength": 7392,
      "target": 34962
    }
  ],
  "meshes": [
    {
      "primitives": [
        {
          "attributes": {
            "POSITION": 0,
            "NORMAL": 2
          },
          "indices": 1
        }
      ]
    },
    {
      "primitives": [
        {
          "attributes": {
            "POSITION": 3,
            "NORMAL": 5
          },
          "indices": 4
        }
      ]
    },
    {
      "primitives": [
        {
          "attributes": {
            "POSITION": 6,
            "NORMAL": 8
          },
          "indices": 7
        }
      ]
    },
    {
      "primitives": [
        {
          "attributes": {
            "POSITION": 9,
            "NORMAL": 11
          },
          "indices": 10
        }
      ]
    },
    {
      "primitives": [
        {
          "attributes": {
            "POSITION": 12,
            "NORMAL": 14
          },
          "indices": 13
        }
      ]
    },
    {
      "primitives": [
        {
          "attributes": {
            "POSITION": 15,
            "NORMAL": 17
          },
          "indices": 16
        }
      ]
    },
    {
      "primitives": [
        {
          "attributes": {
            "POSITION": 18,
            "NORMAL": 20
          },
          "indices": 19
        }
      ]
    },
    {
      "primitives": [
        {
          "attributes": {
            "POSITION": 21,
            "NORMAL": 23
          },
          "indices": 22
        }
      ]
    },
    {
      "primitives": [
        {
          "attributes": {
            "POSITION": 24,
            "NORMAL": 26
          },
          "indices": 25
        }
      ]
    },
    {
      "primitives": [
        {
          "attributes": {
            "POSITION": 27,
            "NORMAL": 29
          },
          "indices": 28
        }
      ]
    },
    {
      "primitives": [
        {
          "attributes": {
            "POSITION": 30,
            "NORMAL": 32
          },
          "indices": 31
        }
      ]
    },
    {
      "primitives": [
        {
          "attributes": {
            "POSITION": 33,
            "NORMAL": 35
          },
          "indices": 34
        }
      ]
    },
    {
      "primitives": [
        {
          "attributes": {
            "POSITION": 36,
            "NORMAL": 38
          },
          "indices": 37
        }
      ]
    },
    {
      "primitives": [
        {
          "attributes": {
            "POSITION": 39,
            "NORMAL": 41
          },
          "indices": 40
        }
      ]
    },
    {
      "primitives": [
        {
          "attributes": {
            "POSITION": 42,
            "NORMAL": 44
          },
          "indices": 43
        }
      ]
    },
    {
      "primitives": [
        {
          "attributes": {
            "POSITION": 45,
            "NORMAL": 47
          },
          "indices": 46
        }
      ]
    }
  ],
  "nodes": [
    {
      "mesh": 0
    },
    {
      "mesh": 1
    },
    {
      "mesh": 2
    },
    {
      "mesh": 3
    },
    {
      "mesh": 4
    },
    {
      "mesh": 5
    },
    {
      "mesh": 6
    },
    {
      "mesh": 7
    },
    {
      "mesh": 8
    },
    {
      "mesh": 9
    },
    {
      "mesh": 10
    },
    {
      "mesh": 11
    },
    {
      "mesh": 12
    },
    {
      "mesh": 13
    },
    {
      "mesh": 14
    },
    {
      "mesh": 15
    }
  ],
  "samplers": [
    {
      "magFilter": 9729,
      "minFilter": 9729
    }
  ],
  "scene": 0,
  "scenes": [
    {
      "nodes": [
        0,
        1,
        2,
        3,
        4,
        5,
        6,
        7,
        8,
        9,
        10,
        11,
        12,
        13,
        14,
        15
      ],
      "extensions": {}
    }
  ],
  "extensions": {}
}